<svg width="82" height="52" viewBox="0 0 82 52" fill="none" xmlns="http://www.w3.org/2000/svg">
<path d="M34.6786 5.4119C35.4845 3.26429 37.325 1.70952 39.606 1.45714C42.6536 1.12024 47.8512 0.75 56 0.75C64.1488 0.75 69.3452 1.11905 72.394 1.45714C74.675 1.71071 76.5155 3.26429 77.3202 5.4119C81 15.2298 81 18.2929 81 18.2929C81.0011 19.1147 80.8403 19.9287 80.5268 20.6885C80.2133 21.4482 79.7532 22.1387 79.1729 22.7206C78.5925 23.3025 77.9032 23.7644 77.1443 24.0799C76.3854 24.3955 75.5719 24.5584 74.75 24.5595C71.2976 24.5595 68.5 21.7548 68.5 18.294C68.5019 19.9537 67.8445 21.5461 66.6725 22.721C65.5004 23.896 63.9096 24.5573 62.25 24.5595C58.7976 24.5595 56 21.7548 56 18.294C56.0019 19.9537 55.3445 21.5461 54.1724 22.721C53.0004 23.896 51.4096 24.5573 49.75 24.5595C46.2976 24.5595 43.5 21.7548 43.5 18.294C43.5019 19.9537 42.8445 21.5461 41.6724 22.721C40.5004 23.896 38.9096 24.5573 37.25 24.5595C33.7976 24.5595 31 21.7548 31 18.294C31 18.294 31 15.2286 34.6786 5.4119Z" fill="#24BA6C"/>
<path d="M33.3828 23.2149V32.8935C33.3828 38.1863 33.5959 42.1351 33.8328 44.8875C34.0911 47.9066 36.4709 50.1351 39.4947 50.3196C42.9935 50.5351 48.4042 50.7494 56.0019 50.7494C63.5995 50.7494 69.0102 50.5351 72.509 50.3208C75.5328 50.1351 77.9126 47.9066 78.1709 44.8875C78.409 42.1351 78.6209 38.1863 78.6209 32.8923V23.2149C77.5203 24.0877 76.1565 24.5619 74.7519 24.5601C71.2995 24.5601 68.5019 21.7542 68.5019 18.2935C68.503 19.1153 68.3422 19.9293 68.0287 20.6891C67.7152 21.4488 67.2551 22.1393 66.6747 22.7212C66.0944 23.3031 65.4051 23.765 64.6462 24.0806C63.8873 24.3961 63.0737 24.559 62.2519 24.5601C58.7995 24.5601 56.0019 21.7542 56.0019 18.2935C56.003 19.1153 55.8422 19.9293 55.5287 20.6891C55.2152 21.4488 54.7551 22.1393 54.1747 22.7212C53.5944 23.3031 52.9051 23.765 52.1462 24.0806C51.3873 24.3961 50.5737 24.559 49.7519 24.5601C46.2995 24.5601 43.5019 21.7542 43.5019 18.2935C43.503 19.1153 43.3422 19.9293 43.0287 20.6891C42.7152 21.4488 42.2551 22.1393 41.6747 22.7212C41.0944 23.3031 40.4051 23.765 39.6462 24.0806C38.8873 24.3961 38.0737 24.559 37.2519 24.5601C35.8471 24.5615 34.4832 24.0881 33.3828 23.2149Z" fill="white"/>
<path d="M65.4528 50.6248C65.4956 49.0771 65.5242 47.1605 65.5242 44.7974C65.5242 40.5533 65.4325 37.745 65.3325 35.9391C65.2278 34.0569 64.1242 32.4938 62.2682 32.1617C60.8706 31.9117 58.8516 31.7021 56.0004 31.7021C53.1492 31.7021 51.1313 31.9105 49.7325 32.1617C47.8766 32.4938 46.773 34.0557 46.6682 35.9391C46.5682 37.745 46.4766 40.5521 46.4766 44.7974C46.4766 47.1593 46.5051 49.0771 46.548 50.6248C49.2147 50.6998 52.3563 50.7498 56.0004 50.7498C59.6444 50.7498 62.7861 50.6998 65.4528 50.6248Z" fill="#24BA6C"/>
<path d="M65.4524 50.625C65.4952 49.0774 65.5238 47.1607 65.5238 44.7976C65.5238 40.5536 65.4321 37.7452 65.3321 35.9393C65.2274 34.0571 64.1238 32.494 62.2679 32.1619C60.8702 31.9119 58.8512 31.7024 56 31.7024C53.1488 31.7024 51.131 31.9107 49.7321 32.1619C47.8762 32.494 46.7726 34.0559 46.6679 35.9393C46.5679 37.7452 46.4762 40.5524 46.4762 44.7976C46.4762 47.1595 46.5048 49.0774 46.5476 50.625M34.6786 5.4119C35.4845 3.26429 37.325 1.70952 39.606 1.45714C42.6536 1.12024 47.8512 0.75 56 0.75C64.1488 0.75 69.3452 1.11905 72.394 1.45714C74.675 1.71071 76.5155 3.26429 77.3202 5.4119C81 15.2298 81 18.2929 81 18.2929C81.0011 19.1147 80.8403 19.9287 80.5268 20.6885C80.2133 21.4482 79.7532 22.1387 79.1729 22.7206C78.5925 23.3025 77.9032 23.7644 77.1443 24.0799C76.3854 24.3955 75.5719 24.5584 74.75 24.5595C71.2976 24.5595 68.5 21.7548 68.5 18.294C68.5019 19.9537 67.8445 21.5461 66.6725 22.721C65.5004 23.896 63.9096 24.5573 62.25 24.5595C58.7976 24.5595 56 21.7548 56 18.294C56.0019 19.9537 55.3445 21.5461 54.1724 22.721C53.0004 23.896 51.4096 24.5573 49.75 24.5595C46.2976 24.5595 43.5 21.7548 43.5 18.294C43.5019 19.9537 42.8445 21.5461 41.6724 22.721C40.5004 23.896 38.9096 24.5573 37.25 24.5595C33.7976 24.5595 31 21.7548 31 18.294C31 18.294 31 15.2286 34.6786 5.4119Z" stroke="#26543C" stroke-width="1.5" stroke-linecap="round" stroke-linejoin="round"/>
<path d="M33.3828 23.2134V32.8919C33.3828 38.1848 33.5959 42.1336 33.8328 44.886C34.0911 47.905 36.4709 50.1336 39.4947 50.3181C42.9935 50.5324 48.4042 50.7491 56.0019 50.7491C63.5995 50.7491 69.0102 50.5324 72.509 50.3181C75.5328 50.1336 77.9126 47.905 78.1709 44.886C78.409 42.1336 78.6209 38.1848 78.6209 32.8919V23.2134" stroke="#26543C" stroke-width="1.5" stroke-linecap="round" stroke-linejoin="round"/>
<path fill-rule="evenodd" clip-rule="evenodd" d="M2 28.75C2 23.227 6.477 18.75 12 18.75C17.523 18.75 22 23.227 22 28.75C22 34.273 17.523 38.75 12 38.75C6.477 38.75 2 34.273 2 28.75ZM12 20.75C9.87827 20.75 7.84344 21.5929 6.34315 23.0931C4.84285 24.5934 4 26.6283 4 28.75C4 30.8717 4.84285 32.9066 6.34315 34.4069C7.84344 35.9071 9.87827 36.75 12 36.75C14.1217 36.75 16.1566 35.9071 17.6569 34.4069C19.1571 32.9066 20 30.8717 20 28.75C20 26.6283 19.1571 24.5934 17.6569 23.0931C16.1566 21.5929 14.1217 20.75 12 20.75Z" fill="#26543C"/>
<path fill-rule="evenodd" clip-rule="evenodd" d="M13 23.75C13 23.4848 12.8946 23.2304 12.7071 23.0429C12.5196 22.8554 12.2652 22.75 12 22.75C11.7348 22.75 11.4804 22.8554 11.2929 23.0429C11.1054 23.2304 11 23.4848 11 23.75V27.75H7C6.73478 27.75 6.48043 27.8554 6.29289 28.0429C6.10536 28.2304 6 28.4848 6 28.75C6 29.0152 6.10536 29.2696 6.29289 29.4571C6.48043 29.6446 6.73478 29.75 7 29.75H11V33.75C11 34.0152 11.1054 34.2696 11.2929 34.4571C11.4804 34.6446 11.7348 34.75 12 34.75C12.2652 34.75 12.5196 34.6446 12.7071 34.4571C12.8946 34.2696 13 34.0152 13 33.75V29.75H17C17.2652 29.75 17.5196 29.6446 17.7071 29.4571C17.8946 29.2696 18 29.0152 18 28.75C18 28.4848 17.8946 28.2304 17.7071 28.0429C17.5196 27.8554 17.2652 27.75 17 27.75H13V23.75Z" fill="#26543C"/>
</svg>
