<svg width="31" height="27" viewBox="0 0 31 27" fill="none" xmlns="http://www.w3.org/2000/svg">
<path d="M1.375 8.95971C1.37503 7.42961 1.83919 5.93551 2.70618 4.67475C3.57318 3.41398 4.80221 2.44587 6.23096 1.89826C7.65971 1.35065 9.22097 1.24932 10.7085 1.60765C12.1961 1.96597 13.5399 2.7671 14.5626 3.90521C14.6347 3.98223 14.7217 4.04363 14.8185 4.08561C14.9152 4.12759 15.0195 4.14925 15.125 4.14925C15.2305 4.14925 15.3348 4.12759 15.4315 4.08561C15.5283 4.04363 15.6153 3.98223 15.6874 3.90521C16.7069 2.7597 18.051 1.95184 19.541 1.58916C21.031 1.22648 22.5961 1.32619 24.028 1.875C25.4599 2.42381 26.6907 3.39571 27.5565 4.66133C28.4224 5.92694 28.8823 7.42626 28.875 8.95971C28.875 12.1085 26.8125 14.4597 24.75 16.5222L17.1985 23.8276C16.9423 24.1218 16.6264 24.3582 16.2718 24.521C15.9172 24.6838 15.5321 24.7693 15.1419 24.7717C14.7517 24.7742 14.3655 24.6936 14.0089 24.5353C13.6523 24.3771 13.3334 24.1447 13.0735 23.8537L5.5 16.5222C3.4375 14.4597 1.375 12.1222 1.375 8.95971Z" stroke="#DC3545" stroke-width="2.75" stroke-linecap="round" stroke-linejoin="round"/>
</svg>
