<svg width="31" height="22" viewBox="0 0 31 22" fill="none" xmlns="http://www.w3.org/2000/svg">
<path d="M16.5 1.375V4.125M16.5 17.875V20.625M16.5 9.625V12.375M1.375 6.875C2.46902 6.875 3.51823 7.3096 4.29182 8.08318C5.0654 8.85677 5.5 9.90598 5.5 11C5.5 12.094 5.0654 13.1432 4.29182 13.9168C3.51823 14.6904 2.46902 15.125 1.375 15.125V17.875C1.375 18.6043 1.66473 19.3038 2.18046 19.8195C2.69618 20.3353 3.39565 20.625 4.125 20.625H26.125C26.8543 20.625 27.5538 20.3353 28.0695 19.8195C28.5853 19.3038 28.875 18.6043 28.875 17.875V15.125C27.781 15.125 26.7318 14.6904 25.9582 13.9168C25.1846 13.1432 24.75 12.094 24.75 11C24.75 9.90598 25.1846 8.85677 25.9582 8.08318C26.7318 7.3096 27.781 6.875 28.875 6.875V4.125C28.875 3.39565 28.5853 2.69618 28.0695 2.18046C27.5538 1.66473 26.8543 1.375 26.125 1.375H4.125C3.39565 1.375 2.69618 1.66473 2.18046 2.18046C1.66473 2.69618 1.375 3.39565 1.375 4.125V6.875Z" stroke="#DC3545" stroke-width="2.75" stroke-linecap="round" stroke-linejoin="round"/>
</svg>
