<svg width="45" height="45" viewBox="0 0 45 45" fill="none" xmlns="http://www.w3.org/2000/svg">
<path d="M14.04 42.3285C15.1559 42.3285 16.0605 41.4239 16.0605 40.3081C16.0605 39.1922 15.1559 38.2876 14.04 38.2876C12.9241 38.2876 12.0195 39.1922 12.0195 40.3081C12.0195 41.4239 12.9241 42.3285 14.04 42.3285Z" stroke="white" stroke-width="4.04093" stroke-linecap="round" stroke-linejoin="round"/>
<path d="M36.2666 42.3285C37.3824 42.3285 38.287 41.4239 38.287 40.3081C38.287 39.1922 37.3824 38.2876 36.2666 38.2876C35.1507 38.2876 34.2461 39.1922 34.2461 40.3081C34.2461 41.4239 35.1507 42.3285 36.2666 42.3285Z" stroke="white" stroke-width="4.04093" stroke-linecap="round" stroke-linejoin="round"/>
<path d="M2.01953 2.02051H6.06046L11.4349 27.1147C11.632 28.0337 12.1434 28.8552 12.881 29.4379C13.6185 30.0206 14.5361 30.3279 15.4758 30.307H35.2359C36.1556 30.3055 37.0472 29.9904 37.7636 29.4136C38.4799 28.8369 38.9781 28.033 39.1758 27.1349L42.5096 12.1228H8.22235" stroke="white" stroke-width="4.04093" stroke-linecap="round" stroke-linejoin="round"/>
</svg>
