<svg width="49" height="49" viewBox="0 0 49 49" fill="none" xmlns="http://www.w3.org/2000/svg">
<path d="M37.5147 41.9258C37.5147 38.4144 36.1198 35.0468 33.6369 32.5639C31.1539 30.0809 27.7863 28.686 24.2749 28.686C20.7635 28.686 17.3959 30.0809 14.913 32.5639C12.4301 35.0468 11.0352 38.4144 11.0352 41.9258" stroke="white" stroke-width="4.41326" stroke-linecap="round" stroke-linejoin="round"/>
<path d="M24.2718 28.6862C29.1466 28.6862 33.0983 24.7345 33.0983 19.8597C33.0983 14.985 29.1466 11.0332 24.2718 11.0332C19.3971 11.0332 15.4453 14.985 15.4453 19.8597C15.4453 24.7345 19.3971 28.6862 24.2718 28.6862Z" stroke="white" stroke-width="4.41326" stroke-linecap="round" stroke-linejoin="round"/>
<path d="M24.2733 46.3391C36.4602 46.3391 46.3396 36.4597 46.3396 24.2728C46.3396 12.086 36.4602 2.20654 24.2733 2.20654C12.0864 2.20654 2.20703 12.086 2.20703 24.2728C2.20703 36.4597 12.0864 46.3391 24.2733 46.3391Z" stroke="white" stroke-width="4.41326" stroke-linecap="round" stroke-linejoin="round"/>
</svg>
