<svg width="45" height="41" viewBox="0 0 45 41" fill="none" xmlns="http://www.w3.org/2000/svg">
<path d="M11.9343 38.2018H32.139M22.0367 1.8335V38.2018M3.85249 9.91535H7.89342C11.9343 9.91535 17.9957 7.89488 22.0367 5.87442C26.0776 7.89488 32.139 9.91535 36.1799 9.91535H40.2208M30.1185 28.0995L36.1799 11.9358L42.2413 28.0995C40.4835 29.4128 38.362 30.12 36.1799 30.12C33.9978 30.12 31.8763 29.4128 30.1185 28.0995ZM1.83203 28.0995L7.89342 11.9358L13.9548 28.0995C12.197 29.4128 10.0755 30.12 7.89342 30.12C5.71132 30.12 3.58983 29.4128 1.83203 28.0995Z" stroke="white" stroke-width="3.66667" stroke-linecap="round" stroke-linejoin="round"/>
</svg>
