<svg width="45" height="39" viewBox="0 0 45 39" fill="none" xmlns="http://www.w3.org/2000/svg">
<path d="M2.01953 13.1657C2.01957 10.9173 2.70163 8.72185 3.97561 6.86925C5.24959 5.01665 7.05557 3.59407 9.15501 2.7894C11.2545 1.98473 13.5486 1.83583 15.7345 2.36237C17.9203 2.8889 19.895 4.06609 21.3978 5.73847C21.5036 5.85164 21.6316 5.94187 21.7737 6.00355C21.9159 6.06524 22.0692 6.09707 22.2242 6.09707C22.3791 6.09707 22.5324 6.06524 22.6746 6.00355C22.8167 5.94187 22.9447 5.85164 23.0505 5.73847C24.5486 4.05522 26.5237 2.86813 28.7131 2.3352C30.9025 1.80228 33.2023 1.94878 35.3064 2.75522C37.4105 3.56166 39.219 4.98979 40.4914 6.84952C41.7637 8.70926 42.4395 10.9124 42.4288 13.1657C42.4288 17.7925 39.3981 21.2475 36.3674 24.2782L25.271 35.0129C24.8945 35.4453 24.4304 35.7927 23.9093 36.0319C23.3883 36.2711 22.8223 36.3967 22.249 36.4003C21.6757 36.4039 21.1082 36.2855 20.5841 36.0529C20.0601 35.8204 19.5916 35.4789 19.2096 35.0513L8.08092 24.2782C5.05023 21.2475 2.01953 17.8128 2.01953 13.1657Z" stroke="white" stroke-width="4.04093" stroke-linecap="round" stroke-linejoin="round"/>
</svg>
